# File created by Blade
# Date/Time:  Tue Sep 23 19:06:47 2014
# Frame Rate: 120.000 fps
#------------------------------------------------------
:FULLY-SPECIFIED
:DEGREES
1010
root -0.731866 32.513239 1.887681 35.621441 2.346423 0.781870
Spine -35.256182 -4.704451 4.786091
Head 3.479949 -2.819787 -5.528012
LeftShoulder -23.091260 41.762168 20.702369
LeftArm 51.495499 -42.148175 -55.124662
LeftForeArm 99.379134 -0.000000 -13.424492
LeftHand -14.677492 -0.000000 63.826235
LeftHandThumb1 -26.253704 0.000000 33.147579
RightShoulder -20.681414 -41.280126 -21.727904
RightArm 42.403917 23.520060 43.276234
RightForeArm 8.163961 -0.000000 3.320834
RightHand 13.751718 0.000000 -12.887614
RightHandThumb1 -24.326973 -0.000000 -32.862282
LeftUpLeg -30.145976 6.717856 0.992673
LeftLeg 4.739492 -0.000000 -0.000000
LeftFoot -7.152890 0.834478 -2.438607
LeftToeBase 1.544194 -0.000000 -0.000000
RightUpLeg -27.632268 -7.796642 5.042825
RightLeg -1.566090 -0.000000 0.000000
RightFoot -7.036128 -2.445087 1.440683
RightToeBase 7.380962 -0.000000 -0.000000
1011
root -0.737486 32.506445 1.933849 35.667095 2.950750 0.723794
Spine -35.579840 -4.988564 5.077067
Head 3.283361 -2.955172 -5.514603
LeftShoulder -23.232097 41.602529 20.913042
LeftArm 51.447603 -43.050019 -54.617046
LeftForeArm 99.506240 0.000000 -13.427177
LeftHand -14.963651 0.000000 63.983575
LeftHandThumb1 -26.253704 0.000000 33.147579
RightShoulder -20.990095 -41.079684 -21.830284
RightArm 42.099259 23.971687 42.407444
RightForeArm 8.078405 -0.000000 2.653889
RightHand 12.908025 -0.000000 -12.191518
RightHandThumb1 -24.326973 -0.000000 -32.862282
LeftUpLeg -29.846472 6.190637 1.512521
LeftLeg 4.067173 -0.000000 -0.000000
LeftFoot -6.976960 0.686778 -2.503221
LeftToeBase 1.570468 -0.000000 -0.000000
RightUpLeg -27.343359 -7.990295 5.236107
RightLeg -1.964705 -0.000000 0.000000
RightFoot -6.865413 -2.467043 1.616227
RightToeBase 7.345707 -0.000000 -0.000000
1012
root -0.741660 32.500495 1.975055 35.741244 3.536417 0.616061
Spine -35.924119 -5.206572 5.395844
Head 3.109482 -3.110983 -5.523378
LeftShoulder -23.301214 41.418568 21.163610
LeftArm 51.229811 -43.741679 -53.785150
LeftForeArm 99.347596 -0.000000 -13.656108
LeftHand -15.001508 -0.000000 63.906529
LeftHandThumb1 -26.253704 0.000000 33.147579
RightShoulder -21.162690 -40.766123 -22.106861
RightArm 41.645035 24.326996 41.663060
RightForeArm 8.053233 -0.000000 1.993656
RightHand 12.170204 -0.000000 -11.270984
RightHandThumb1 -24.326973 -0.000000 -32.862282
LeftUpLeg -29.652304 5.804158 1.996946
LeftLeg 3.514176 -0.000000 -0.000000
LeftFoot -6.838363 0.426366 -2.624782
LeftToeBase 1.732772 -0.000000 -0.000000
RightUpLeg -27.092734 -8.098788 5.436921
RightLeg -2.365298 -0.000000 0.000000
RightFoot -6.602653 -2.478955 1.830031
RightToeBase 6.996328 -0.000000 -0.000000
1013
root -0.742389 32.494801 2.010706 35.826116 4.062857 0.513152
Spine -36.261251 -5.339607 5.636325
Head 2.946845 -3.296029 -5.505453
LeftShoulder -23.271935 41.212324 21.443077
LeftArm 51.198362 -44.564307 -53.121344
LeftForeArm 99.602043 -0.000000 -14.080818
LeftHand -15.368792 -0.000000 64.012196
LeftHandThumb1 -26.253704 0.000000 33.147579
RightShoulder -21.396847 -40.478379 -22.289407
RightArm 41.213622 24.537495 40.735640
RightForeArm 8.096363 -0.000000 1.077271
RightHand 11.702776 -0.000000 -10.243098
RightHandThumb1 -24.326973 -0.000000 -32.862282
LeftUpLeg -29.487384 5.364909 2.469330
LeftLeg 3.009381 -0.000000 -0.000000
LeftFoot -6.754043 0.368538 -2.722979
LeftToeBase 1.656168 -0.000000 -0.000000
RightUpLeg -26.900878 -8.132100 5.594193
RightLeg -2.693210 -0.000000 0.000000
RightFoot -6.421770 -2.600026 1.984745
RightToeBase 6.869420 -0.000000 -0.000000
1014
root -0.740971 32.489412 2.046117 35.917726 4.497616 0.387767
Spine -36.597946 -5.430058 5.877908
Head 2.808197 -3.456499 -5.509244
LeftShoulder -23.368630 41.043323 21.626791
LeftArm 51.077112 -45.246133 -52.328154
LeftForeArm 99.278172 -0.000000 -14.399390
LeftHand -15.197043 -0.000000 63.976534
LeftHandThumb1 -26.253704 0.000000 33.147579
RightShoulder -21.522266 -40.261123 -22.562820
RightArm 40.777701 24.795844 39.989361
RightForeArm 8.311567 -0.000000 0.380357
RightHand 10.922698 0.000000 -9.208477
RightHandThumb1 -24.326973 -0.000000 -32.862282
LeftUpLeg -29.367525 5.101772 2.849290
LeftLeg 2.590393 -0.000000 -0.000000
LeftFoot -6.703682 0.223893 -2.863937
LeftToeBase 1.685647 -0.000000 -0.000000
RightUpLeg -26.735118 -8.050776 5.706643
RightLeg -2.981509 -0.000000 0.000000
RightFoot -6.269232 -2.766356 2.114209
RightToeBase 6.822548 -0.000000 -0.000000
1015
root -0.733792 32.485898 2.074715 36.037856 4.870100 0.238217
Spine -36.942413 -5.424447 6.088621
Head 2.686508 -3.639797 -5.497492
LeftShoulder -23.221696 40.730709 22.011539
LeftArm 50.756371 -45.925709 -51.615144
LeftForeArm 99.304832 -0.000000 -14.687944
LeftHand -15.497390 -0.000000 64.024581
LeftHandThumb1 -26.253704 0.000000 33.147579
RightShoulder -21.663285 -40.017191 -22.762790
RightArm 40.298299 25.007936 39.146579
RightForeArm 8.633561 -0.000000 -0.358797
RightHand 10.025011 -0.000000 -7.834374
RightHandThumb1 -24.326973 -0.000000 -32.862282
LeftUpLeg -29.307622 4.875166 3.199812
LeftLeg 2.226422 -0.000000 -0.000000
LeftFoot -6.695223 0.172428 -2.936710
LeftToeBase 1.789294 -0.000000 -0.000000
RightUpLeg -26.603168 -7.838351 5.749837
RightLeg -3.263633 -0.000000 0.000000
RightFoot -5.989282 -2.953062 2.012044
RightToeBase 6.397298 -0.000000 -0.000000
1016
root -0.729395 32.481238 2.102124 36.099570 5.176962 0.056477
Spine -37.213217 -5.351627 6.266876
Head 2.548932 -3.781446 -5.501545
LeftShoulder -23.216632 40.550901 22.196676
LeftArm 50.884438 -46.794105 -51.143810
LeftForeArm 99.427108 -0.000000 -15.144425
LeftHand -15.508802 -0.000000 64.098344
LeftHandThumb1 -26.253704 0.000000 33.147579
RightShoulder -21.740827 -39.747670 -23.041500
RightArm 39.789168 25.167786 38.467456
RightForeArm 8.829227 -0.000000 -1.025514
RightHand 9.361893 0.000000 -6.965049
RightHandThumb1 -24.326973 -0.000000 -32.862282
LeftUpLeg -29.206031 4.749150 3.523988
LeftLeg 1.925277 -0.000000 -0.000000
LeftFoot -6.743373 0.117725 -2.999946
LeftToeBase 1.987477 -0.000000 -0.000000
RightUpLeg -26.452592 -7.495719 5.760891
RightLeg -3.494277 -0.000000 0.000000
RightFoot -5.832036 -3.293492 2.191131
RightToeBase 6.295973 -0.000000 -0.000000
1017
root -0.718915 32.477885 2.125833 36.225056 5.352179 -0.123206
Spine -37.530696 -5.150625 6.360760
Head 2.430170 -3.972880 -5.501687
LeftShoulder -23.064186 40.217474 22.579080
LeftArm 50.641816 -47.415129 -50.593741
LeftForeArm 99.354511 -0.000000 -15.338647
LeftHand -15.494312 -0.000000 64.200908
LeftHandThumb1 -26.253704 0.000000 33.147579
RightShoulder -21.875288 -39.497978 -23.247653
RightArm 39.311148 25.312133 37.763844
RightForeArm 8.885572 -0.000000 -1.621250
RightHand 8.440668 -0.000000 -5.855984
RightHandThumb1 -24.326973 -0.000000 -32.862282
LeftUpLeg -29.209681 4.817207 3.681832
LeftLeg 1.706245 -0.000000 -0.000000
LeftFoot -6.804825 0.063883 -2.982065
LeftToeBase 2.112303 -0.000000 -0.000000
RightUpLeg -26.477366 -7.198250 5.790816
RightLeg -3.559500 -0.000000 0.000000
RightFoot -5.712479 -3.467091 2.235571
RightToeBase 6.149113 -0.000000 -0.000000
1018
root -0.706909 32.473327 2.147682 36.240651 5.511116 -0.309103
Spine -37.703570 -4.954266 6.451262
Head 2.256207 -4.145208 -5.516224
LeftShoulder -22.864987 39.773950 23.003663
LeftArm 50.315677 -48.000956 -50.145161
LeftForeArm 99.225043 -0.000000 -15.371823
LeftHand -15.365220 -0.000000 64.352699
LeftHandThumb1 -26.253704 0.000000 33.147579
RightShoulder -22.011547 -39.183079 -23.451202
RightArm 38.906133 25.549364 37.266215
RightForeArm 8.593148 0.000000 -2.095199
RightHand 7.511939 -0.000000 -5.104562
RightHandThumb1 -24.326973 -0.000000 -32.862282
LeftUpLeg -29.131473 4.837151 3.857545
LeftLeg 1.543147 -0.000000 -0.000000
LeftFoot -6.900993 0.139102 -2.908779
LeftToeBase 2.184909 -0.000000 -0.000000
RightUpLeg -26.402068 -6.906073 5.804743
RightLeg -3.617359 -0.000000 0.000000
RightFoot -5.631133 -3.669324 2.335565
RightToeBase 6.127892 -0.000000 -0.000000
1019
root -0.690005 32.469146 2.167626 36.231709 5.618070 -0.481099
Spine -37.851388 -4.742917 6.504684
Head 2.124588 -4.275841 -5.530160
LeftShoulder -22.886015 39.602810 23.233840
LeftArm 50.709125 -48.832424 -50.430786
LeftForeArm 99.157046 -0.000000 -15.232633
LeftHand -15.382042 -0.000000 64.241542
LeftHandThumb1 -26.253704 0.000000 33.147579
RightShoulder -22.122923 -38.951035 -23.611039
RightArm 38.531363 25.713858 36.719920
RightForeArm 8.513071 0.000000 -2.597921
RightHand 6.668416 -0.000000 -4.258350
RightHandThumb1 -24.326973 -0.000000 -32.862282
LeftUpLeg -29.020048 4.809526 4.010007
LeftLeg 1.373746 -0.000000 -0.000000
LeftFoot -6.920699 0.327627 -2.646011
LeftToeBase 2.049486 -0.000000 -0.000000
RightUpLeg -26.358809 -6.656791 5.819329
RightLeg -3.585970 -0.000000 0.000000
RightFoot -5.608715 -3.835499 2.461504
RightToeBase 6.062183 -0.000000 -0.000000
